<svg width="228" height="287" viewBox="0 0 228 287" fill="none" xmlns="http://www.w3.org/2000/svg">
<path d="M195.257 181.645L188.614 184.333L211.547 241.01L218.19 238.322L195.257 181.645Z" fill="#42E8E0"/>
<path d="M43.1917 216.464C42.7071 216.902 42.1121 217.199 41.4709 217.324C40.8297 217.449 40.1666 217.397 39.553 217.173C38.6622 216.841 37.9385 216.171 37.5393 215.309C37.1402 214.447 37.098 213.461 37.4219 212.568L55.3108 163.893C55.6411 163.004 56.3097 162.282 57.1706 161.884C58.0316 161.487 59.0149 161.446 59.9059 161.771C60.3471 161.933 60.7521 162.18 61.0976 162.499C61.4431 162.818 61.7225 163.202 61.9196 163.628C62.1167 164.055 62.2277 164.517 62.2464 164.986C62.265 165.456 62.1908 165.925 62.0281 166.366L44.1682 215.014C43.9732 215.573 43.6368 216.073 43.1917 216.464Z" fill="#42E8E0"/>
<path d="M154.42 68.0484C153.915 68.3291 153.347 68.4747 152.777 68.4694C152.208 68.4641 151.659 68.3082 151.19 68.0185C150.509 67.5929 150.044 66.9151 149.896 66.1329C149.747 65.3506 149.927 64.5272 150.397 63.8419L176.171 26.55C176.644 25.8695 177.368 25.3846 178.182 25.2012C178.997 25.0178 179.837 25.1508 180.519 25.5712C180.856 25.7804 181.144 26.0541 181.366 26.3768C181.589 26.6995 181.741 27.0648 181.814 27.4518C181.887 27.8389 181.88 28.24 181.793 28.6323C181.706 29.0247 181.54 29.4005 181.306 29.7383L155.563 67.0133C155.275 67.4436 154.882 67.8001 154.42 68.0484Z" fill="#42E8E0"/>
<path d="M133.659 60.9436C133.349 61.4317 132.919 61.8308 132.417 62.0981C131.914 62.3653 131.357 62.4905 130.806 62.4602C130.005 62.4111 129.273 62.0378 128.769 61.4214C128.265 60.8051 128.03 59.9957 128.115 59.1695L132.95 14.096C133.041 13.2719 133.445 12.5005 134.073 11.9503C134.701 11.4001 135.503 11.1159 136.302 11.1596C136.699 11.1822 137.083 11.2851 137.432 11.4625C137.781 11.6399 138.09 11.8882 138.339 12.1933C138.588 12.4984 138.773 12.8542 138.884 13.2405C138.995 13.6268 139.029 14.0359 138.985 14.4445L134.168 59.4886C134.122 60.0038 133.946 60.505 133.659 60.9436Z" fill="#42E8E0"/>
<path d="M81.5596 173.697C91.752 166.828 94.4456 152.996 87.5759 142.804C80.7062 132.611 66.8746 129.918 56.6821 136.787C46.4897 143.657 43.796 157.489 50.6658 167.681C57.5355 177.874 71.3671 180.567 81.5596 173.697Z" fill="url(#paint0_radial_61_347)"/>
<path d="M184.036 188.179C184.036 231.372 158.308 266.394 126.602 266.394C94.8963 266.394 69.1686 231.372 69.1686 188.179C69.1686 144.987 94.8832 132.051 126.602 132.051C158.321 132.051 184.036 144.948 184.036 188.179Z" fill="url(#paint1_radial_61_347)"/>
<g style="mix-blend-mode:lighten">
<path d="M184.036 188.179C184.036 231.372 158.308 266.394 126.602 266.394C94.8963 266.394 69.1686 231.372 69.1686 188.179C69.1686 144.987 94.8832 132.051 126.602 132.051C158.321 132.051 184.036 144.948 184.036 188.179Z" fill="url(#paint2_linear_61_347)"/>
</g>
<path d="M126.576 177.867C148.232 177.867 165.788 167.734 165.788 155.233C165.788 142.733 148.232 132.599 126.576 132.599C104.92 132.599 87.3646 142.733 87.3646 155.233C87.3646 167.734 104.92 177.867 126.576 177.867Z" fill="#3A3F97"/>
<path d="M98.8513 145.247C114.163 136.41 138.99 136.41 154.314 145.247C160.632 148.902 164.339 153.497 165.435 158.301C167.002 151.552 163.295 144.464 154.314 139.269C138.99 130.432 114.163 130.432 98.8513 139.269C89.8577 144.49 86.1637 151.539 87.717 158.301C88.8265 153.497 92.5206 148.902 98.8513 145.247Z" fill="#3A3F97"/>
<path d="M81.321 101.428L88.4089 89.2104C92.6816 84.7065 95.8342 79.26 97.6113 73.3117L104.791 60.9373L94.4655 55.0373C94.1372 54.8046 93.7876 54.6036 93.4213 54.4369C90.4843 53.0402 86.5815 53.4187 82.287 55.8858C73.1498 61.107 65.7487 73.9905 65.7487 84.6026C65.7487 89.8239 67.6022 93.5701 70.5914 95.3062L81.321 101.428Z" fill="url(#paint3_radial_61_347)"/>
<path d="M104.633 87.8791C111.093 76.6912 111.091 64.5974 104.629 60.8667C98.1673 57.136 87.6928 63.1812 81.2334 74.3691C74.7741 85.5569 74.7761 97.6508 81.2378 101.381C87.6996 105.112 98.1741 99.0669 104.633 87.8791Z" fill="#BCBEFF"/>
<path d="M150.658 155.582C180.692 143.533 195.272 109.417 183.223 79.3824C171.173 49.3479 137.057 34.7681 107.023 46.8176C76.9884 58.867 62.4086 92.9828 74.4581 123.017C86.5075 153.052 120.623 167.632 150.658 155.582Z" fill="url(#paint4_radial_61_347)"/>
<g style="mix-blend-mode:lighten">
<path d="M150.658 155.582C180.692 143.533 195.272 109.417 183.223 79.3824C171.173 49.3479 137.057 34.7681 107.023 46.8176C76.9884 58.867 62.4086 92.9828 74.4581 123.017C86.5075 153.052 120.623 167.632 150.658 155.582Z" fill="url(#paint5_linear_61_347)"/>
</g>
<path d="M161.65 140.823L168.751 128.605C172.99 124.102 176.119 118.671 177.888 112.745L185.067 100.371L174.729 94.4317C174.402 94.2081 174.057 94.0117 173.698 93.8443C170.748 92.4477 166.845 92.8262 162.564 95.2932C153.427 100.514 146.025 113.398 146.025 123.945C146.025 129.166 147.879 132.912 150.868 134.648L161.65 140.823Z" fill="url(#paint6_radial_61_347)"/>
<path d="M184.971 127.279C191.43 116.092 191.428 103.998 184.967 100.267C178.505 96.5364 168.03 102.582 161.571 113.769C155.112 124.957 155.114 137.051 161.575 140.782C168.037 144.513 178.512 138.467 184.971 127.279Z" fill="#BCBEFF"/>
<path d="M157.486 130.21C157.486 119.663 164.9 106.832 174.024 101.493C176.599 99.872 179.635 99.1427 182.666 99.4179C180.055 98.8175 176.766 99.4179 173.267 101.454C164.13 106.675 156.729 119.546 156.729 130.171C156.729 137.063 159.901 141.266 164.639 141.919C160.319 140.849 157.486 136.724 157.486 130.21Z" fill="white"/>
<path d="M182.427 124.987C187.044 116.953 187.03 108.28 182.395 105.616C177.76 102.953 170.26 107.306 165.643 115.341C161.025 123.375 161.039 132.047 165.674 134.711C170.309 137.375 177.81 133.021 182.427 124.987Z" fill="#3A3F97"/>
<path d="M180.068 105.436C181.44 107.266 182.124 109.521 182 111.805C182 119.337 176.713 128.5 170.174 132.273C168.176 133.598 165.75 134.116 163.386 133.722C165.501 136.215 169.129 136.567 173.267 134.179C179.794 130.406 185.093 121.243 185.093 113.698C185.093 109.077 183.109 106.153 180.068 105.436Z" fill="#3A3F97"/>
<path d="M103.767 139.96C111.354 136.802 113.071 123.591 107.603 110.453C102.134 97.3154 91.5499 89.2253 83.9626 92.3835C76.3754 95.5418 74.6581 108.752 80.1268 121.89C85.5956 135.028 96.1796 143.118 103.767 139.96Z" fill="#3A3F97"/>
<path d="M102.95 118.998C102.415 123.188 99.2431 124.506 95.8884 121.935C94.1393 120.439 92.7669 118.552 91.8825 116.427C90.9981 114.302 90.6265 111.999 90.7977 109.704C91.3459 105.514 94.5048 104.209 97.8594 106.767C99.6102 108.262 100.984 110.148 101.868 112.273C102.753 114.399 103.123 116.702 102.95 118.998Z" fill="#42E8E0"/>
<path d="M95.5881 135.354C86.3334 128.292 80.081 113.229 81.5821 101.703C82.1825 97.0166 83.9969 93.6228 86.5423 91.7432C81.7257 92.2 78.0708 96.2856 77.144 103.387C75.6429 114.912 81.9215 129.976 91.15 137.038C96.6193 141.215 101.893 141.645 105.613 138.917C102.598 139.191 99.1255 138.069 95.5881 135.354Z" fill="#3A3F97"/>
<path d="M91.9463 136.659C82.7177 129.597 76.4391 114.534 77.9403 103.008C78.6321 97.6823 80.8772 94.0404 83.9839 92.3696C80.4595 93.8185 77.9011 97.5909 77.144 103.386C75.6429 114.912 81.9215 129.976 91.15 137.037C96.1102 140.823 100.901 141.528 104.516 139.648C101.005 141.032 96.541 140.183 91.9463 136.659Z" fill="#42E8E0"/>
<path d="M204.607 201.297C214.716 194.305 217.243 180.442 210.251 170.333C203.259 160.224 189.396 157.697 179.287 164.689C169.178 171.681 166.651 185.544 173.643 195.653C180.635 205.762 194.498 208.289 204.607 201.297Z" fill="url(#paint7_radial_61_347)"/>
<g style="mix-blend-mode:lighten">
<path d="M204.607 201.297C214.716 194.305 217.243 180.442 210.251 170.333C203.259 160.224 189.396 157.697 179.287 164.689C169.178 171.681 166.651 185.544 173.643 195.653C180.635 205.762 194.498 208.289 204.607 201.297Z" fill="url(#paint8_linear_61_347)"/>
</g>
<path d="M227.451 256.708C226.145 267.281 216.852 287.305 208.393 286.3C199.935 285.295 195.575 263.626 196.841 253.053C198.107 242.48 205.978 234.779 214.424 235.732C222.869 236.685 228.704 246.135 227.451 256.708Z" fill="url(#paint9_radial_61_347)"/>
<path style="mix-blend-mode:lighten" d="M227.451 256.708C226.145 267.281 216.852 287.305 208.393 286.3C199.935 285.295 195.575 263.626 196.841 253.053C198.107 242.48 205.978 234.779 214.424 235.732C222.869 236.685 228.704 246.135 227.451 256.708Z" fill="url(#paint10_linear_61_347)"/>
<path d="M43.6244 231.098C36.4731 238.99 17.2327 249.862 10.9451 244.16C4.65747 238.457 13.6557 218.262 20.8112 210.382C27.9667 202.503 38.8921 200.752 45.1882 206.479C51.4843 212.206 50.7923 223.214 43.6244 231.098Z" fill="url(#paint11_radial_61_347)"/>
<path style="mix-blend-mode:lighten" d="M43.6244 231.098C36.4731 238.99 17.2327 249.862 10.9451 244.16C4.65747 238.457 13.6557 218.262 20.8112 210.382C27.9667 202.503 38.8921 200.752 45.1882 206.479C51.4843 212.206 50.7923 223.214 43.6244 231.098Z" fill="url(#paint12_linear_61_347)"/>
<circle cx="135.5" cy="10.5" r="10.5" fill="#3A3F97"/>
<circle cx="181.5" cy="25.5" r="10.5" fill="#3A3F97"/>
<defs>
<radialGradient id="paint0_radial_61_347" cx="0" cy="0" r="1" gradientUnits="userSpaceOnUse" gradientTransform="translate(175.565 84.1538) rotate(11.2) scale(128.456)">
<stop stop-color="#C0BFF6"/>
<stop offset="1" stop-color="#393091"/>
</radialGradient>
<radialGradient id="paint1_radial_61_347" cx="0" cy="0" r="1" gradientUnits="userSpaceOnUse" gradientTransform="translate(161.887 176.732) scale(98.984 134.517)">
<stop stop-color="#C0BFF6"/>
<stop offset="1" stop-color="#393091"/>
</radialGradient>
<linearGradient id="paint2_linear_61_347" x1="127.911" y1="266.737" x2="127.911" y2="132.276" gradientUnits="userSpaceOnUse">
<stop stop-color="#42E6DF"/>
<stop offset="0.14" stop-color="#40B6CB"/>
<stop offset="0.27" stop-color="#3E8DB9"/>
<stop offset="0.41" stop-color="#3C6BAA"/>
<stop offset="0.55" stop-color="#3B519F"/>
<stop offset="0.69" stop-color="#3A3F97"/>
<stop offset="0.84" stop-color="#393493"/>
<stop offset="1" stop-color="#393091"/>
</linearGradient>
<radialGradient id="paint3_radial_61_347" cx="0" cy="0" r="1" gradientUnits="userSpaceOnUse" gradientTransform="translate(68.7248 10.2259) scale(69.534 69.534)">
<stop stop-color="#C0BFF6"/>
<stop offset="1" stop-color="#393091"/>
</radialGradient>
<radialGradient id="paint4_radial_61_347" cx="0" cy="0" r="1" gradientUnits="userSpaceOnUse" gradientTransform="translate(165.426 92.5161) scale(99.0472)">
<stop stop-color="#C0BFF6"/>
<stop offset="1" stop-color="#393091"/>
</radialGradient>
<linearGradient id="paint5_linear_61_347" x1="120.693" y1="159.231" x2="137.009" y2="43.1622" gradientUnits="userSpaceOnUse">
<stop stop-color="#42E6DF"/>
<stop offset="0.14" stop-color="#40B6CB"/>
<stop offset="0.27" stop-color="#3E8DB9"/>
<stop offset="0.41" stop-color="#3C6BAA"/>
<stop offset="0.55" stop-color="#3B519F"/>
<stop offset="0.69" stop-color="#3A3F97"/>
<stop offset="0.84" stop-color="#3A3F97"/>
<stop offset="1" stop-color="#3A3F97"/>
</linearGradient>
<radialGradient id="paint6_radial_61_347" cx="0" cy="0" r="1" gradientUnits="userSpaceOnUse" gradientTransform="translate(164.639 91.4556) scale(47.0435 47.0435)">
<stop stop-color="#C0BFF6"/>
<stop offset="1" stop-color="#3A3F97"/>
</radialGradient>
<radialGradient id="paint7_radial_61_347" cx="0" cy="0" r="1" gradientUnits="userSpaceOnUse" gradientTransform="translate(205.138 168.49) rotate(11.2) scale(46.43)">
<stop stop-color="#C0BFF6"/>
<stop offset="1" stop-color="#393091"/>
</radialGradient>
<linearGradient id="paint8_linear_61_347" x1="173.949" y1="196.1" x2="209.961" y2="169.937" gradientUnits="userSpaceOnUse">
<stop stop-color="#42E6DF"/>
<stop offset="0.14" stop-color="#40B6CB"/>
<stop offset="0.27" stop-color="#3E8DB9"/>
<stop offset="0.41" stop-color="#3C6BAA"/>
<stop offset="0.55" stop-color="#3B519F"/>
<stop offset="0.69" stop-color="#3A3F97"/>
<stop offset="0.84" stop-color="#393493"/>
<stop offset="1" stop-color="#393091"/>
</linearGradient>
<radialGradient id="paint9_radial_61_347" cx="0" cy="0" r="1" gradientUnits="userSpaceOnUse" gradientTransform="translate(235.206 241.386) rotate(6.89243) scale(39.4241 64.978)">
<stop stop-color="#C0BFF6"/>
<stop offset="1" stop-color="#3A3F97"/>
</radialGradient>
<linearGradient id="paint10_linear_61_347" x1="194.363" y1="259.105" x2="224.931" y2="262.859" gradientUnits="userSpaceOnUse">
<stop stop-color="#42E6DF"/>
<stop offset="0.14" stop-color="#40B6CB"/>
<stop offset="0.27" stop-color="#3E8DB9"/>
<stop offset="0.41" stop-color="#3C6BAA"/>
<stop offset="0.55" stop-color="#3B519F"/>
<stop offset="0.69" stop-color="#3A3F97"/>
<stop offset="0.84" stop-color="#393493"/>
<stop offset="1" stop-color="#393091"/>
</linearGradient>
<radialGradient id="paint11_radial_61_347" cx="0" cy="0" r="1" gradientUnits="userSpaceOnUse" gradientTransform="translate(77.5227 197.24) rotate(42.1666) scale(39.2689 65.2535)">
<stop stop-color="#C0BFF6"/>
<stop offset="1" stop-color="#393091"/>
</radialGradient>
<linearGradient id="paint12_linear_61_347" x1="58.1167" y1="232.795" x2="23.0403" y2="235.497" gradientUnits="userSpaceOnUse">
<stop stop-color="#42E6DF"/>
<stop offset="0.14" stop-color="#40B6CB"/>
<stop offset="0.27" stop-color="#3E8DB9"/>
<stop offset="0.41" stop-color="#3C6BAA"/>
<stop offset="0.55" stop-color="#3B519F"/>
<stop offset="0.69" stop-color="#3A3F97"/>
<stop offset="0.84" stop-color="#393493"/>
<stop offset="1" stop-color="#393091"/>
</linearGradient>
</defs>
</svg>
